<svg xmlns="http://www.w3.org/2000/svg" viewBox="0 0 32 32">
  <defs>
    <linearGradient id="bg" x1="0%" y1="0%" x2="100%" y2="0%">
      <stop offset="0%" stop-color="#cce2ff"/>
      <stop offset="100%" stop-color="#ffdbe9"/>
    </linearGradient>
  </defs>
  <circle cx="16" cy="16" r="16" fill="url(#bg)"/>
  <g transform="translate(8.75,6) scale(0.093)">
    <path transform="translate(-619,0)" fill="#1a1a2e" fill-rule="evenodd" clip-rule="evenodd" d="M753.752 52.8187L676.173 5.53666C651.188 -9.68055 619.117 8.24269 619.117 37.4317V170.412C619.117 196.952 634.755 210.652 654.845 210.652C673.686 210.652 689.12 196.103 690.471 177.67C708.892 175.745 724.088 160.234 723.247 139.219L757.056 118.613C769.015 111.321 775 99.0251 775 86.7177C775 74.4104 770.798 62.2389 753.752 52.796V52.8187ZM654.845 189.479C646.85 189.479 640.377 183.014 640.377 175.055C640.377 167.095 646.85 160.619 654.845 160.619C662.84 160.619 669.325 167.084 669.325 175.055C669.325 183.025 662.84 189.479 654.845 189.479ZM701.999 141.359C701.999 146.805 698.478 156.69 685.452 156.69C683.975 154.255 682.215 151.991 680.228 149.987C678.218 147.983 675.98 146.205 673.55 144.699C668.11 141.359 661.705 139.434 654.845 139.434C650.121 139.434 645.612 140.352 641.49 142.005C641.126 142.152 640.717 142.322 640.365 142.48V110.585C640.365 102.116 647.248 95.2548 655.742 95.2548H686.61C695.105 95.2548 701.987 102.116 701.987 110.585V141.359H701.999ZM745.972 100.565L723.247 114.412V110.574C723.247 90.4088 706.848 74.0594 686.622 74.0594H655.754C650.268 74.0594 645.056 75.2595 640.377 77.4334V37.443C640.377 24.7959 654.266 17.0175 665.1 23.6184L745.984 72.9158C756.352 79.2337 756.352 94.2471 745.984 100.565H745.972Z"/>
  </g>
</svg>
